<svg width="108" height="37" viewBox="0 0 108 37" fill="none" xmlns="http://www.w3.org/2000/svg">
<path d="M3.37163 11.416C2.85963 11.416 2.42229 11.2347 2.05963 10.872C1.69696 10.5093 1.51562 10.072 1.51562 9.56C1.51562 9.048 1.69696 8.61067 2.05963 8.248C2.42229 7.88533 2.85963 7.704 3.37163 7.704C3.88363 7.704 4.32096 7.88533 4.68363 8.248C5.04629 8.61067 5.22763 9.048 5.22763 9.56C5.22763 10.072 5.04629 10.5093 4.68363 10.872C4.32096 11.2347 3.88363 11.416 3.37163 11.416ZM3.37163 16.856C2.85963 16.856 2.42229 16.6747 2.05963 16.312C1.69696 15.9493 1.51562 15.512 1.51562 15C1.51562 14.488 1.69696 14.0507 2.05963 13.688C2.42229 13.3253 2.85963 13.144 3.37163 13.144C3.88363 13.144 4.32096 13.3253 4.68363 13.688C5.04629 14.0507 5.22763 14.488 5.22763 15C5.22763 15.512 5.04629 15.9493 4.68363 16.312C4.32096 16.6747 3.88363 16.856 3.37163 16.856ZM7.21488 19.28V15.536L10.8629 13.904V17.488C10.6709 17.8293 10.3722 18.1387 9.96688 18.416C9.58288 18.672 9.14554 18.8747 8.65488 19.024C8.16421 19.1733 7.68421 19.2587 7.21488 19.28ZM7.21488 14.768V5.2L10.8629 4.4V13.136L7.21488 14.768ZM10.8629 24.976L5.87088 19.984C6.14821 19.984 6.52154 19.984 6.99088 19.984C7.46021 19.9627 7.95088 19.9093 8.46288 19.824C8.97488 19.7173 9.44421 19.5573 9.87088 19.344C10.3189 19.1093 10.6495 18.7893 10.8629 18.384V24.976ZM5.87088 30C4.95354 30 4.11088 29.776 3.34288 29.328C2.59621 28.88 1.98821 28.272 1.51888 27.504C1.07088 26.736 0.846875 25.8933 0.846875 24.976C0.846875 24.0587 1.07088 23.2267 1.51888 22.48C1.98821 21.712 2.59621 21.104 3.34288 20.656C4.11088 20.208 4.95354 19.984 5.87088 19.984C6.78821 19.984 7.62021 20.208 8.36688 20.656C9.13488 21.104 9.74288 21.712 10.1909 22.48C10.6389 23.2267 10.8629 24.0587 10.8629 24.976C10.8629 25.8933 10.6389 26.736 10.1909 27.504C9.74288 28.272 9.13488 28.88 8.36688 29.328C7.62021 29.776 6.78821 30 5.87088 30ZM5.87088 26.384C6.25488 26.384 6.57488 26.256 6.83088 26C7.10821 25.7227 7.24688 25.3813 7.24688 24.976C7.24688 24.592 7.10821 24.272 6.83088 24.016C6.57488 23.7387 6.25488 23.6 5.87088 23.6C5.48688 23.6 5.15621 23.7387 4.87888 24.016C4.60154 24.272 4.46288 24.592 4.46288 24.976C4.46288 25.3813 4.60154 25.7227 4.87888 26C5.15621 26.256 5.48688 26.384 5.87088 26.384ZM13.7519 30C13.7519 30 13.6452 30 13.4319 30C13.2185 29.9787 13.0052 29.9147 12.7919 29.808C12.5785 29.7013 12.4719 29.52 12.4719 29.264V5.2L16.0879 4.4V26.384H19.5119V30H13.7519ZM24.2826 36.856C23.7706 36.856 23.3333 36.6747 22.9706 36.312C22.608 35.9493 22.4266 35.512 22.4266 35C22.4266 34.488 22.608 34.0507 22.9706 33.688C23.3333 33.3253 23.7706 33.144 24.2826 33.144C24.7946 33.144 25.232 33.3253 25.5946 33.688C25.9573 34.0507 26.1386 34.488 26.1386 35C26.1386 35.512 25.9573 35.9493 25.5946 36.312C25.232 36.6747 24.7946 36.856 24.2826 36.856ZM18.7466 36.856C18.2346 36.856 17.7973 36.6747 17.4346 36.312C17.072 35.9493 16.8906 35.512 16.8906 35C16.8906 34.488 17.072 34.0507 17.4346 33.688C17.7973 33.3253 18.2346 33.144 18.7466 33.144C19.2586 33.144 19.696 33.3253 20.0586 33.688C20.4213 34.0507 20.6026 34.488 20.6026 35C20.6026 35.512 20.4213 35.9493 20.0586 36.312C19.696 36.6747 19.2586 36.856 18.7466 36.856ZM22.0594 30V26.384H29.0994V30H22.0594ZM18.2194 30V26.384H21.6434V20.784L25.2594 19.984V29.264C25.2594 29.52 25.1527 29.7013 24.9394 29.808C24.726 29.9147 24.5127 29.9787 24.2994 30C24.086 30 23.9794 30 23.9794 30H18.2194ZM27.8131 30V26.384H33.5091C33.1251 26.1067 32.7198 25.7227 32.2931 25.232C31.8878 24.72 31.5571 24.2507 31.3011 23.824L33.1891 20.176C33.9571 21.3493 34.8105 22.4053 35.7491 23.344C36.6878 24.2827 37.6478 25.0293 38.6291 25.584C39.6105 26.1173 40.5491 26.384 41.4451 26.384H49.5731L47.6531 30H27.8131ZM36.4394 24.72C37.1434 24.6133 37.6554 24.4 37.9754 24.08C38.2954 23.76 38.498 23.3547 38.5834 22.864C38.6474 22.352 38.6794 21.7867 38.6794 21.168V5.2L42.2954 4.4V20.4C42.2954 21.68 42.114 22.6613 41.7514 23.344C41.3887 24.0053 40.93 24.464 40.3754 24.72C39.7994 24.976 39.2234 25.104 38.6474 25.104C38.1994 25.104 37.762 25.0613 37.3354 24.976C36.9087 24.8693 36.61 24.784 36.4394 24.72ZM57.8154 28.144C57.6874 28.6133 57.378 29.0187 56.8874 29.36C56.418 29.7013 55.8527 29.936 55.1914 30.064C54.5514 30.192 53.922 30.1813 53.3034 30.032C52.706 29.904 52.194 29.616 51.7674 29.168C51.362 28.6987 51.1594 28.048 51.1594 27.216V5.2L54.7754 4.4V27.216C54.7754 27.664 54.8927 27.984 55.1274 28.176C55.362 28.3467 55.65 28.4533 55.9914 28.496C56.3327 28.5173 56.674 28.4853 57.0154 28.4C57.3567 28.3147 57.6234 28.2293 57.8154 28.144ZM75.6264 15.856C75.1144 15.856 74.677 15.6747 74.3144 15.312C73.9517 14.9493 73.7704 14.512 73.7704 14C73.7704 13.488 73.9517 13.0507 74.3144 12.688C74.677 12.3253 75.1144 12.144 75.6264 12.144C76.1384 12.144 76.5757 12.3253 76.9384 12.688C77.301 13.0507 77.4824 13.488 77.4824 14C77.4824 14.512 77.301 14.9493 76.9384 15.312C76.5757 15.6747 76.1384 15.856 75.6264 15.856ZM70.0904 15.856C69.5784 15.856 69.141 15.6747 68.7784 15.312C68.4157 14.9493 68.2344 14.512 68.2344 14C68.2344 13.488 68.4157 13.0507 68.7784 12.688C69.141 12.3253 69.5784 12.144 70.0904 12.144C70.6024 12.144 71.0397 12.3253 71.4024 12.688C71.765 13.0507 71.9464 13.488 71.9464 14C71.9464 14.512 71.765 14.9493 71.4024 15.312C71.0397 15.6747 70.6024 15.856 70.0904 15.856ZM70.0804 36.88C68.843 36.88 67.7657 36.6667 66.8484 36.24C65.931 35.8347 65.1844 35.2907 64.6084 34.608C64.0324 33.9467 63.6057 33.2213 63.3284 32.432C63.051 31.6427 62.9124 30.8853 62.9124 30.16C62.9124 28.752 63.1577 27.4933 63.6484 26.384C64.139 25.2533 64.7684 24.3467 65.5364 23.664C65.579 24.0693 65.611 24.464 65.6324 24.848C65.6537 25.2107 65.515 25.5947 65.2164 26C65.387 25.9787 65.643 26.064 65.9844 26.256C66.347 26.448 66.5817 26.8427 66.6884 27.44C66.2404 27.376 65.8777 27.3653 65.6004 27.408C65.3444 27.4293 65.099 27.5147 64.8644 27.664C64.5657 27.856 64.3417 28.1867 64.1924 28.656C64.043 29.1253 63.9684 29.6267 63.9684 30.16C63.9684 30.9707 64.1924 31.7173 64.6404 32.4C65.1097 33.104 65.771 33.6693 66.6244 34.096C67.499 34.5227 68.5444 34.736 69.7604 34.736C71.403 34.736 72.5657 34.3307 73.2484 33.52C73.931 32.7307 74.2724 31.4507 74.2724 29.68V27.504L77.8884 24.976V28.4C77.8884 28.7413 77.8457 29.2533 77.7604 29.936C77.6964 30.5973 77.5257 31.3227 77.2484 32.112C76.9924 32.9013 76.5764 33.6587 76.0004 34.384C75.4457 35.1093 74.6884 35.7067 73.7284 36.176C72.7684 36.6453 71.5524 36.88 70.0804 36.88ZM72.9284 30C72.011 30 71.1684 29.776 70.4004 29.328C69.6537 28.88 69.0564 28.272 68.6084 27.504C68.1817 26.736 67.9684 25.8933 67.9684 24.976C67.9684 24.0587 68.1817 23.2267 68.6084 22.48C69.0564 21.712 69.6537 21.104 70.4004 20.656C71.1684 20.208 72.011 19.984 72.9284 19.984C73.8457 19.984 74.6777 20.208 75.4244 20.656C76.171 21.104 76.7684 21.712 77.2164 22.48C77.6644 23.2267 77.8884 24.0587 77.8884 24.976C77.8884 25.8933 77.6644 26.736 77.2164 27.504C76.7684 28.272 76.171 28.88 75.4244 29.328C74.6777 29.776 73.8457 30 72.9284 30ZM72.9284 26.384C73.3124 26.384 73.643 26.256 73.9204 26C74.1977 25.7227 74.3364 25.3813 74.3364 24.976C74.3364 24.592 74.1977 24.272 73.9204 24.016C73.643 23.7387 73.3124 23.6 72.9284 23.6C72.5444 23.6 72.2137 23.7387 71.9364 24.016C71.659 24.272 71.5204 24.592 71.5204 24.976C71.5204 25.3813 71.659 25.7227 71.9364 26C72.2137 26.256 72.5444 26.384 72.9284 26.384ZM80.7831 30C80.7831 30 80.6765 30 80.4631 30C80.2498 29.9787 80.0365 29.9147 79.8231 29.808C79.6098 29.7013 79.5031 29.52 79.5031 29.264V5.2L83.1191 4.4V26.384H86.5431V30H80.7831ZM93.6841 12.856C93.1721 12.856 92.7348 12.6747 92.3721 12.312C92.0095 11.9493 91.8281 11.512 91.8281 11C91.8281 10.488 92.0095 10.0507 92.3721 9.688C92.7348 9.32533 93.1721 9.144 93.6841 9.144C94.1961 9.144 94.6335 9.32533 94.9961 9.688C95.3588 10.0507 95.5401 10.488 95.5401 11C95.5401 11.512 95.3588 11.9493 94.9961 12.312C94.6335 12.6747 94.1961 12.856 93.6841 12.856ZM85.2506 30V26.384H95.0746V22.288L98.6906 19.984V29.264C98.6906 29.52 98.584 29.7013 98.3706 29.808C98.1573 29.9147 97.944 29.9787 97.7306 30C97.5173 30 97.4106 30 97.4106 30H85.2506ZM93.6986 24.976C92.8026 24.976 91.9706 24.752 91.2026 24.304C90.4346 23.856 89.816 23.248 89.3466 22.48C88.8986 21.712 88.6746 20.88 88.6746 19.984C88.6746 19.0453 88.8986 18.2027 89.3466 17.456C89.816 16.688 90.4346 16.08 91.2026 15.632C91.9706 15.184 92.8026 14.96 93.6986 14.96C94.616 14.96 95.448 15.184 96.1946 15.632C96.9626 16.08 97.5706 16.688 98.0186 17.456C98.4666 18.2027 98.6906 19.0453 98.6906 19.984C98.6906 20.9013 98.4666 21.744 98.0186 22.512C97.5706 23.2587 96.9626 23.856 96.1946 24.304C95.448 24.752 94.616 24.976 93.6986 24.976ZM93.6986 21.36C94.104 21.36 94.4346 21.232 94.6906 20.976C94.9466 20.6987 95.0746 20.368 95.0746 19.984C95.0746 19.5787 94.9466 19.248 94.6906 18.992C94.4346 18.7147 94.104 18.576 93.6986 18.576C93.3146 18.576 92.984 18.7147 92.7066 18.992C92.4506 19.248 92.3226 19.5787 92.3226 19.984C92.3226 20.368 92.4506 20.6987 92.7066 20.976C92.984 21.232 93.3146 21.36 93.6986 21.36ZM97.7969 4.216C98.2875 4.152 98.5542 3.96 98.5969 3.64C98.6609 3.32 98.6929 2.936 98.6929 2.488V0.696L100.293 0.44V2.488C100.293 3.064 100.186 3.48 99.9729 3.736C99.7595 4.01333 99.5035 4.184 99.2049 4.248C98.9062 4.33333 98.6182 4.35467 98.3409 4.312C98.0849 4.26933 97.9035 4.23733 97.7969 4.216ZM99.2689 3V1.4H105.285V3H99.2689ZM104.677 3V1.4H105.797C105.968 1.4 106.128 1.35733 106.277 1.272C106.448 1.18667 106.576 1.05867 106.661 0.888L107.877 3H104.677ZM106.94 28.144C106.812 28.6133 106.503 29.0187 106.012 29.36C105.543 29.7013 104.978 29.936 104.316 30.064C103.676 30.192 103.047 30.1813 102.428 30.032C101.831 29.904 101.319 29.616 100.892 29.168C100.487 28.6987 100.284 28.048 100.284 27.216V5.2L103.9 4.4V27.216C103.9 27.664 104.018 27.984 104.252 28.176C104.487 28.3467 104.775 28.4533 105.116 28.496C105.458 28.5173 105.799 28.4853 106.14 28.4C106.482 28.3147 106.748 28.2293 106.94 28.144Z" fill="#264653"/>
</svg>
